<svg width="7" height="7" viewBox="0 0 7 7" fill="none" xmlns="http://www.w3.org/2000/svg">
<path d="M3.5 4.24525L0.891635 6.85361C0.794043 6.9512 0.669835 7 0.519011 7C0.368188 7 0.24398 6.9512 0.146388 6.85361C0.0487957 6.75602 0 6.63181 0 6.48099C0 6.33016 0.0487957 6.20596 0.146388 6.10836L2.75475 3.5L0.146388 0.891635C0.0487957 0.794043 0 0.669835 0 0.519011C0 0.368188 0.0487957 0.24398 0.146388 0.146388C0.24398 0.0487957 0.368188 0 0.519011 0C0.669835 0 0.794043 0.0487957 0.891635 0.146388L3.5 2.75475L6.10836 0.146388C6.20596 0.0487957 6.33016 0 6.48099 0C6.63181 0 6.75602 0.0487957 6.85361 0.146388C6.9512 0.24398 7 0.368188 7 0.519011C7 0.669835 6.9512 0.794043 6.85361 0.891635L4.24525 3.5L6.85361 6.10836C6.9512 6.20596 7 6.33016 7 6.48099C7 6.63181 6.9512 6.75602 6.85361 6.85361C6.75602 6.9512 6.63181 7 6.48099 7C6.33016 7 6.20596 6.9512 6.10836 6.85361L3.5 4.24525Z" fill="#F9F9F9"/>
</svg>
