<svg width="20" height="16" viewBox="0 0 20 16" fill="none" xmlns="http://www.w3.org/2000/svg">
<path d="M1.57019 6.28076C0.701352 6.28076 0 6.98211 0 7.85095C0 8.71979 0.701352 9.42114 1.57019 9.42114C2.43903 9.42114 3.14038 8.71979 3.14038 7.85095C3.14038 6.98211 2.43903 6.28076 1.57019 6.28076ZM1.57019 0C0.701352 0 0 0.701352 0 1.57019C0 2.43903 0.701352 3.14038 1.57019 3.14038C2.43903 3.14038 3.14038 2.43903 3.14038 1.57019C3.14038 0.701352 2.43903 0 1.57019 0ZM1.57019 12.5615C0.701352 12.5615 0 13.2733 0 14.1317C0 14.9901 0.711819 15.7019 1.57019 15.7019C2.42856 15.7019 3.14038 14.9901 3.14038 14.1317C3.14038 13.2733 2.43903 12.5615 1.57019 12.5615ZM4.71057 15.1785H19.3657V13.0849H4.71057V15.1785ZM4.71057 8.89774H19.3657V6.80416H4.71057V8.89774ZM4.71057 0.523397V2.61698H19.3657V0.523397H4.71057Z" fill="#808080"/>
</svg>
