<svg width="508" height="181" viewBox="0 0 508 181" fill="none" xmlns="http://www.w3.org/2000/svg">
<path d="M507.429 0L136.199 160.23C105.415 173.433 79.5573 180.055 58.6468 180.055C34.9666 180.055 17.7773 171.654 7.12126 154.829C0.418924 144.027 -1.54738 130.332 1.20122 113.721C3.94981 97.1111 11.2653 79.4292 23.1054 60.6114C32.9792 45.3943 49.1536 25.3976 71.6709 0.60011C64.0333 12.7881 58.4326 26.1704 55.0948 40.2076C49.1747 65.8195 54.5028 84.6159 71.0789 96.6182C78.9652 102.212 89.8116 105.02 103.639 105.02C114.676 105.02 127.108 103.219 140.935 99.6187L507.429 0Z" fill="white"/>
</svg>
